<?xml version="1.0" encoding="UTF-8" ?>
<!DOCTYPE svg PUBLIC "-//W3C//DTD SVG 1.1//EN" "http://www.w3.org/Graphics/SVG/1.1/DTD/svg11.dtd">
<svg width="324pt" height="308pt" viewBox="0 0 324 308" version="1.1" xmlns="http://www.w3.org/2000/svg">
<g id="#ffffffff">
</g>
<g id="#000000ff">
<path fill="#000000" opacity="1.00" d=" M 76.51 35.23 C 89.84 30.51 105.01 31.34 117.78 37.40 C 130.90 43.59 141.33 55.22 145.90 69.00 C 148.90 77.45 149.43 86.63 148.11 95.45 C 162.41 91.23 178.06 91.78 192.02 97.03 C 209.24 103.37 223.78 116.74 231.31 133.50 C 239.78 151.37 239.61 172.72 231.94 190.84 C 242.49 190.83 253.14 194.83 260.55 202.44 C 268.75 210.22 273.12 221.73 272.50 232.98 C 272.05 243.17 267.50 253.12 260.04 260.08 C 253.39 266.58 244.32 270.41 235.07 271.04 C 223.84 271.82 212.31 267.61 204.36 259.61 C 195.99 251.61 191.57 239.80 192.39 228.28 C 175.11 234.77 155.25 234.24 138.49 226.42 C 121.76 218.85 108.26 204.40 101.96 187.13 C 96.35 172.28 96.13 155.47 101.22 140.45 C 87.71 142.03 73.61 138.62 62.62 130.52 C 51.12 122.32 43.14 109.38 40.87 95.45 C 38.97 83.59 40.91 71.09 46.72 60.54 C 53.06 48.80 63.89 39.56 76.51 35.23 M 69.18 50.81 C 69.19 53.45 69.19 56.08 69.21 58.72 C 71.63 58.73 74.05 58.73 76.47 58.69 C 76.35 76.36 76.30 94.03 76.10 111.70 C 73.82 111.61 71.54 111.60 69.25 111.63 C 69.21 114.30 69.19 116.96 69.19 119.62 C 79.76 119.48 90.34 119.71 100.90 119.51 C 108.04 119.22 115.81 116.82 120.06 110.70 C 124.06 104.34 124.08 95.14 118.86 89.43 C 115.35 85.37 109.93 83.64 104.71 83.44 C 107.73 82.89 110.93 82.28 113.31 80.18 C 120.71 73.99 120.55 61.05 113.00 55.05 C 108.89 51.49 103.22 50.77 97.99 50.75 C 88.39 50.78 78.78 50.68 69.18 50.81 M 137.92 118.33 C 137.89 121.93 137.90 125.53 137.92 129.14 C 141.53 129.09 145.13 129.12 148.74 129.15 C 148.58 152.84 148.35 176.54 148.25 200.24 C 145.13 200.32 142.01 200.32 138.89 200.26 C 138.83 203.91 138.89 207.57 138.84 211.22 C 150.73 211.15 162.63 211.09 174.51 211.26 C 174.63 207.60 174.56 203.94 174.58 200.28 C 170.79 200.30 166.99 200.33 163.20 200.25 C 163.22 189.98 163.37 179.72 163.37 169.45 C 173.04 169.46 182.71 169.46 192.38 169.47 C 192.35 165.58 192.39 161.68 192.33 157.79 C 182.69 157.78 173.04 157.92 163.40 157.72 C 163.48 148.21 163.66 138.69 163.62 129.17 C 172.64 129.08 181.67 129.09 190.69 129.15 C 190.98 133.63 191.23 138.11 191.53 142.59 C 195.60 142.60 199.68 142.60 203.75 142.61 C 203.64 134.51 203.35 126.41 203.31 118.31 C 181.51 118.31 159.72 118.25 137.92 118.33 M 222.43 205.50 C 222.43 207.95 222.44 210.39 222.45 212.85 C 224.01 212.83 225.58 212.81 227.15 212.80 C 227.04 224.92 227.14 237.05 227.11 249.17 C 225.54 249.15 223.97 249.15 222.41 249.15 C 222.45 251.55 222.46 253.96 222.46 256.37 C 229.07 256.42 235.68 256.48 242.29 256.34 C 242.17 253.97 242.17 251.59 242.30 249.22 C 240.74 249.18 239.18 249.14 237.63 249.12 C 237.65 237.03 237.67 224.95 237.61 212.86 C 239.17 212.83 240.72 212.82 242.28 212.80 C 242.19 210.38 242.16 207.96 242.20 205.54 C 235.61 205.48 229.02 205.54 222.43 205.50 Z" />
<path fill="#000000" opacity="1.00" d=" M 87.55 58.67 C 93.01 59.17 99.21 57.44 103.97 60.92 C 108.97 65.40 108.24 74.72 102.51 78.30 C 97.90 80.80 92.44 80.08 87.40 80.06 C 87.35 72.93 87.54 65.80 87.55 58.67 Z" />
<path fill="#000000" opacity="1.00" d=" M 87.39 88.62 C 93.61 89.01 100.45 87.52 106.03 91.06 C 112.43 94.82 112.33 105.40 106.03 109.20 C 100.37 112.69 93.48 111.29 87.20 111.67 C 87.25 103.99 87.27 96.30 87.39 88.62 Z" />
</g>
</svg>
